PathFileType	4	(X/Y/Z)	/Users/mathieubourgeois/Desktop/Analyse/Traitement/Sujet_04/Transformed_Static_Sujet_04_Tpose.trc
DataRate	CameraRate	NumFrames	NumMarkers	Units	OrigDataRate	OrigDataStartFrame	OrigNumFrames
120.000000	120.000000	5	36	mm	120.000000	37	296
Frame#	Time	RFHD			RANE			STRN			LANI			LKNE			T10			RHUM			RWRB			C7			LFWT			LTOE			RTOE			LWRA			LBWT			RBWT			RFWT			LKNI			RKNI			RKNE			LANE			RANI			LHEE			RHEE			LHUM			LRAD			RRAD			RWRA			LWRB			LFHD			LBHD			RBHD			RSHO			LSHO			CLAV			LCAR			RCAR			
		X1	Y1	Z1	X2	Y2	Z2	X3	Y3	Z3	X4	Y4	Z4	X5	Y5	Z5	X6	Y6	Z6	X7	Y7	Z7	X8	Y8	Z8	X9	Y9	Z9	X10	Y10	Z10	X11	Y11	Z11	X12	Y12	Z12	X13	Y13	Z13	X14	Y14	Z14	X15	Y15	Z15	X16	Y16	Z16	X17	Y17	Z17	X18	Y18	Z18	X19	Y19	Z19	X20	Y20	Z20	X21	Y21	Z21	X22	Y22	Z22	X23	Y23	Z23	X24	Y24	Z24	X25	Y25	Z25	X26	Y26	Z26	X27	Y27	Z27	X28	Y28	Z28	X29	Y29	Z29	X30	Y30	Z30	X31	Y31	Z31	X32	Y32	Z32	X33	Y33	Z33	X34	Y34	Z34	X35	Y35	Z35	X36	Y36	Z36	

38	0.3083333333333333	-659.3917236328125	1781.048950195312	447.0712280273436	-778.7469482421875	91.38840484619142	190.4256591796874	-591.7169799804688	1329.25	449.3317260742186	-553.8153686523438	99.94217681884767	240.5346069335937	-434.0185852050782	541.8719482421875	263.817413330078	-589.4471435546875	1316.364868164062	211.7557373046873	-1055.008056640625	1425.264038085938	303.3115539550779	-1329.081176757812	1512.614013671875	276.0202636718747	-601.226806640625	1592.143676757812	271.541290283203	-465.6806945800782	1063.133422851562	399.8634033203124	-484.3083190917969	35.44794082641604	420.8470153808593	-763.4224853515625	36.66319274902347	426.597930908203	116.0863952636718	1587.612915039062	273.0349121093749	-531.729248046875	1111.579223632812	204.3408660888671	-662.1493530273438	1110.633911132812	194.9850158691405	-760.2483520507812	1075.260864257812	375.7646179199217	-553.3624877929688	500.593505859375	263.9880065917968	-666.4940795898438	503.5943603515625	286.5523681640624	-779.5802612304688	546.951171875	279.4753417968748	-466.2553405761719	85.95149230957033	190.9586791992187	-690.2005615234375	97.49007415771486	229.0143127441405	-526.0260620117188	63.28662872314454	152.7420806884765	-732.0880737304688	72.07741546630861	150.3538818359374	-135.5650482177735	1445.676635742188	294.9573669433593	-135.7326202392578	1492.28076171875	238.4013519287108	-1061.645141601562	1476.087524414062	255.0555725097654	-1312.727783203125	1557.551025390625	326.0709838867185	137.9175109863281	1511.113891601562	255.4519653320312	-526.96728515625	1775.553100585938	433.0230712890623	-557.785400390625	1733.503540039062	276.7194519042967	-693.5980224609375	1735.552612304688	300.5077209472655	-745.714599609375	1575.60595703125	295.6640930175779	-446.4469604492188	1589.888671875	308.5439147949217	-590.0155029296875	1496.600708007812	402.623565673828	229.0590667724609	1586.283935546875	237.9148864746093	-1421.66455078125	1566.87451171875	292.0931091308591	
39	0.3166666666666667	-659.3305053710938	1781.056762695312	446.9982604980467	-778.7578735351562	91.39501953125001	190.4098052978515	-591.7157592773438	1329.2978515625	449.3291931152343	-553.8306274414062	99.93939208984376	240.5419921874999	-434.0401611328126	541.8712768554688	263.7784118652343	-589.4735717773438	1316.356689453125	211.7245635986326	-1054.982666015625	1425.367919921875	303.3183898925779	-1329.057495117188	1512.739624023438	276.072814941406	-601.1445922851562	1592.152099609375	271.4635009765623	-465.7059631347657	1063.126220703125	399.8208923339843	-484.3044433593751	35.44551086425784	420.8526611328124	-763.42578125	36.66616439819339	426.6083374023436	116.1244583129883	1587.664794921875	272.9415893554686	-531.781005859375	1111.572387695312	204.3132781982421	-662.2032470703125	1110.624267578125	194.9726715087889	-760.2864990234375	1075.28369140625	375.778106689453	-553.386474609375	500.5973510742188	263.9832763671874	-666.5172119140625	503.5959167480469	286.5534057617186	-779.60302734375	546.9509887695312	279.4751586914061	-466.2696228027344	85.96375274658205	190.9476928710937	-690.2282104492188	97.49916076660158	229.0140075683593	-526.0355834960938	63.28227996826173	152.7370910644531	-732.1115112304688	72.08627319335939	150.3462371826171	-135.5026092529297	1445.685302734375	294.8892822265624	-135.6812286376953	1492.28076171875	238.3532714843749	-1061.625244140625	1476.188842773438	255.0681457519529	-1312.693481445312	1557.679565429688	326.131896972656	137.961685180664	1511.15478515625	255.3762969970703	-526.8851318359375	1775.553100585938	432.9596252441405	-557.6657104492188	1733.517211914062	276.6470336914061	-693.4705810546875	1735.569091796875	300.382354736328	-745.6272583007812	1575.68017578125	295.5721130371091	-446.3983764648438	1589.883911132812	308.5066833496092	-589.9690551757812	1496.635131835938	402.5704650878905	229.0708618164062	1586.344360351562	237.7769317626953	-1421.632202148438	1566.999755859375	292.1932067871091	
40	0.325	-659.2446899414062	1781.075561523438	446.878936767578	-778.759765625	91.39749145507814	190.4059600830077	-591.709716796875	1329.350708007812	449.3026428222655	-553.8364868164062	99.9393997192383	240.5317840576171	-434.0694885253907	541.8721923828125	263.7625732421874	-589.4954223632812	1316.34130859375	211.6851501464842	-1054.959228515625	1425.47265625	303.3675537109373	-1329.02734375	1512.826782226562	276.1362609863278	-601.06201171875	1592.1484375	271.3749389648436	-465.7358398437501	1063.133544921875	399.7998962402343	-484.3058471679688	35.44338989257815	420.8463134765624	-763.4214477539062	36.65741348266604	426.6052246093749	116.1604461669922	1587.706909179688	272.8547363281249	-531.8333740234375	1111.57958984375	204.2755584716796	-662.2485961914062	1110.6220703125	194.9698791503905	-760.3251342773438	1075.275756835938	375.7892761230467	-553.4127197265625	500.588134765625	263.9803161621093	-666.5441284179688	503.6063537597656	286.5396423339843	-779.6300659179688	546.9510498046875	279.4754638671873	-466.1183471679688	85.60995483398439	191.1386108398437	-690.2254638671875	97.49893951416017	229.0260467529296	-526.0418090820312	63.27503204345704	152.7442169189453	-732.0945434570312	72.07178497314455	150.3527526855468	-135.4411773681641	1445.695678710938	294.8286132812499	-135.6402130126953	1492.281982421875	238.2790374755858	-1061.60302734375	1476.278564453125	255.0800781249998	-1312.663452148438	1557.772827148438	326.2021484374997	138.0091094970703	1511.211303710938	255.2805938720703	-526.8045654296875	1775.558715820312	432.9088745117186	-557.5531005859375	1733.513305664062	276.602813720703	-693.3546752929688	1735.576049804688	300.2842712402342	-745.5473022460938	1575.728759765625	295.4794616699216	-446.3557434082032	1589.874389648438	308.4459228515623	-589.9337158203125	1496.669921875	402.530548095703	229.113052368164	1586.4013671875	237.6761169433593	-1421.598266601562	1567.089111328125	292.2534484863278	
41	0.3333333333333333	-659.165283203125	1781.094604492188	446.7861022949217	-778.772705078125	91.38909149169923	190.3995971679687	-591.7128295898438	1329.398681640625	449.277374267578	-553.8243408203125	99.94259643554689	240.4949493408203	-434.1002807617188	541.8865356445312	263.7493591308593	-589.5328369140625	1316.34423828125	211.6418457031248	-1054.929077148438	1425.56396484375	303.4169616699216	-1329.013061523438	1512.883544921875	276.1928405761716	-600.9874877929688	1592.137573242188	271.2906494140623	-465.7746887207032	1063.153930664062	399.7692871093749	-484.2903442382813	35.45006179809573	420.8439636230468	-763.4178466796875	36.67485809326175	426.604034423828	116.2136535644531	1587.742431640625	272.7309570312499	-531.9039306640625	1111.566284179688	204.2612915039061	-662.2910766601562	1110.621215820312	194.9701080322264	-760.3671875	1075.274169921875	375.7980957031248	-553.4421997070312	500.5887756347656	263.9761962890624	-666.5576171875	503.6142272949219	286.526153564453	-779.6590576171875	546.9546508789062	279.4818420410155	-466.2819519042969	85.9623489379883	190.9528503417968	-690.2214965820312	97.50317382812501	229.0076904296874	-526.049560546875	63.28232955932618	152.7407989501953	-732.1053466796875	72.07398223876955	150.3488616943359	-135.3829193115235	1445.718872070312	294.7878112792968	-135.5907135009766	1492.27978515625	238.2322998046874	-1061.587036132812	1476.340454101562	255.1168823242185	-1312.626586914062	1557.856567382812	326.2218627929685	138.0511169433593	1511.246215820312	255.1909179687499	-526.7237548828125	1775.562133789062	432.8405151367186	-557.4510498046875	1733.510375976562	276.5250549316405	-693.2320556640625	1735.592041015625	300.171417236328	-745.4920654296875	1575.774780273438	295.3821716308591	-446.3184814453126	1589.87255859375	308.4143676757811	-589.8882446289062	1496.70751953125	402.494903564453	229.1522979736328	1586.446655273438	237.5649108886718	-1421.568237304688	1567.161743164062	292.282043457031	
42	0.3416666666666667	-659.0765991210938	1781.1259765625	446.6730346679686	-778.7703857421875	91.38691711425783	190.4380645751952	-591.7315673828125	1329.443359375	449.2428894042968	-553.8278198242188	99.94313812255861	240.4908905029296	-434.1211242675782	541.8941040039062	263.7367858886718	-589.5509033203125	1316.33544921875	211.540313720703	-1054.909545898438	1425.636962890625	303.482727050781	-1328.986083984375	1512.936889648438	276.2572021484372	-600.9417724609375	1592.130004882812	271.2166442871092	-465.8149108886719	1063.16162109375	399.7367553710936	-484.2988586425782	35.43997192382815	420.8583679199218	-763.4147338867188	36.67914581298831	426.590362548828	116.2576293945312	1587.76220703125	272.6474304199218	-531.9506225585938	1111.56591796875	204.2206115722655	-662.3453369140625	1110.633544921875	194.9550781249999	-760.3817749023438	1075.267211914062	375.8018188476561	-553.461181640625	500.5841674804688	263.9875183105468	-666.5747680664062	503.6147155761719	286.5140380859374	-779.680908203125	546.9569702148438	279.493194580078	-466.2862548828125	85.96416473388673	190.9537048339843	-690.239501953125	97.50685882568361	229.0228576660155	-526.0610961914062	63.27905654907227	152.7453613281249	-732.1235961914062	72.0780715942383	150.3500366210937	-135.3135375976563	1445.721313476562	294.7605590820311	-135.5452423095703	1492.265869140625	238.1946868896483	-1061.5751953125	1476.403198242188	255.1578369140623	-1312.603881835938	1557.926391601562	326.2552795410153	138.0880737304687	1511.260131835938	255.1110534667968	-526.6455688476562	1775.56640625	432.7654724121092	-557.3470458984375	1733.50146484375	276.4666748046873	-693.1205444335938	1735.609741210938	300.0646057128905	-745.4310302734375	1575.805419921875	295.2727355957029	-446.2665710449219	1589.870239257812	308.3619384765623	-589.8533325195312	1496.73681640625	402.4715270996092	229.1768341064453	1586.471801757812	237.4506378173828	-1421.558959960938	1567.211303710938	292.3055419921872	
